<?xml version="1.0" encoding="UTF-8"?>
<svg version="1.1" xmlns="http://www.w3.org/2000/svg" width="1200" height="1200">
<path d="M0 0 C396 0 792 0 1200 0 C1200 396 1200 792 1200 1200 C804 1200 408 1200 0 1200 C0 804 0 408 0 0 Z " fill="#006400" transform="translate(0,0)"/>
<path d="M0 0 C6.27 0 12.54 0 19 0 C19.33 13.86 19.66 27.72 20 42 C22.31 40.02 24.62 38.04 27 36 C33.82037609 32.98329519 41.66528404 32.76322509 48.8203125 34.8046875 C56.54800485 38.23134007 61.4427001 44.01110876 64.6640625 51.7421875 C66.22467876 56.12531459 66.50024607 60.18821444 66.4375 64.8125 C66.42992676 65.59931152 66.42235352 66.38612305 66.41455078 67.19677734 C66.139741 76.96355725 63.20993496 86.10218343 56 93 C48.70342995 98.51954561 40.90151154 99.15507709 32 98 C27.02680486 96.48808728 23.39444139 93.96018163 20 90 C19.67 91.98 19.34 93.96 19 96 C12.73 96 6.46 96 0 96 C0 64.32 0 32.64 0 0 Z " fill="#720884" transform="translate(902,557)"/>
<path d="M0 0 C3.08998756 1.91284944 5.31520419 4.35802268 7.72265625 7.06640625 C8.05265625 4.75640625 8.38265625 2.44640625 8.72265625 0.06640625 C14.66265625 0.06640625 20.60265625 0.06640625 26.72265625 0.06640625 C26.72265625 19.86640625 26.72265625 39.66640625 26.72265625 60.06640625 C20.78265625 60.06640625 14.84265625 60.06640625 8.72265625 60.06640625 C8.22765625 56.60140625 8.22765625 56.60140625 7.72265625 53.06640625 C6.96082031 53.78957031 6.96082031 53.78957031 6.18359375 54.52734375 C-0.79133333 60.92755773 -5.84358226 62.49616947 -15.3046875 62.3203125 C-21.57763807 61.78451514 -26.78163511 59.56211489 -31.27734375 55.06640625 C-38.97766597 44.9525502 -40.38092254 34.46327466 -39.27734375 22.06640625 C-37.34025624 13.45365695 -33.66750609 6.03634607 -26.15234375 1.19140625 C-18.47751522 -3.3179288 -8.18008837 -3.59507068 0 0 Z " fill="#5ACCF7" transform="translate(544.27734375,592.93359375)"/>
<path d="M0 0 C0.94836227 -0.00315216 1.89672455 -0.00630432 2.87382507 -0.009552 C4.39578239 -0.00651566 4.39578239 -0.00651566 5.94848633 -0.00341797 C7.00530106 -0.00437469 8.06211578 -0.00533142 9.1509552 -0.00631714 C11.38595642 -0.0069969 13.62095962 -0.00515683 15.85595703 -0.00097656 C19.25077848 0.00434789 22.64546601 -0.00091472 26.0402832 -0.00732422 C28.21801787 -0.00666288 30.39575245 -0.00538057 32.57348633 -0.00341797 C34.08026192 -0.00645432 34.08026192 -0.00645432 35.61747742 -0.009552 C41.83359195 0.01077133 47.92093658 0.38812559 54.09301758 1.12939453 C54.09301758 1.45939453 54.09301758 1.78939453 54.09301758 2.12939453 C52.22709961 2.27634766 52.22709961 2.27634766 50.32348633 2.42626953 C38.77160581 3.4271461 27.39167717 4.49972512 18.09301758 12.12939453 C15.8545855 14.97830809 15.54077862 18.14470823 15.66723633 21.73876953 C17.60732698 32.63175557 25.5284398 40.65872185 33.09301758 48.12939453 C34.2319043 49.26634766 34.2319043 49.26634766 35.39379883 50.42626953 C48.87767236 63.18820856 65.03838005 72.98411928 81.09301758 82.12939453 C81.95910645 82.62294434 82.82519531 83.11649414 83.7175293 83.625 C120.58057899 104.47538684 159.87056314 121.10420578 201.09301758 131.12939453 C201.09301758 131.45939453 201.09301758 131.78939453 201.09301758 132.12939453 C193.15259895 131.6818741 185.89286293 129.92885802 178.28051758 127.69189453 C177.05840576 127.33554932 175.83629395 126.9792041 174.57714844 126.61206055 C121.03516343 110.75854124 67.40948421 88.1767668 19.09301758 60.12939453 C18.3245752 59.6853125 17.55613281 59.24123047 16.7644043 58.78369141 C5.62612645 52.29899771 -4.81491367 45.14510464 -14.90698242 37.12939453 C-16.17541992 36.12392578 -16.17541992 36.12392578 -17.46948242 35.09814453 C-23.95851572 29.69061679 -29.28067313 23.90500285 -30.40698242 15.31689453 C-30.32565428 11.90736869 -29.6725648 10.25979299 -27.21948242 7.87939453 C-19.92933399 2.40805614 -9.02863549 0.00866256 0 0 Z " fill="#59CCF5" transform="translate(261.906982421875,544.87060546875)"/>
<path d="M0 0 C5.94 0 11.88 0 18 0 C18 19.47 18 38.94 18 59 C18.66 59 19.32 59 20 59 C20.26425781 58.40703125 20.52851562 57.8140625 20.80078125 57.203125 C22.04370425 54.91970946 23.30401646 53.52573277 25.1875 51.75 C32.06692093 45.07530425 32.06692093 45.07530425 37.53515625 37.27734375 C40.91646995 34.15324567 43.3409038 34.48338304 47.81640625 34.56054688 C49.26853516 34.62338867 49.26853516 34.62338867 50.75 34.6875 C51.73355469 34.71005859 52.71710937 34.73261719 53.73046875 34.75585938 C56.1551947 34.81471195 58.57681983 34.89686569 61 35 C59.11474577 39.07877523 56.38209511 42.02249716 53.3125 45.25 C52.22591067 46.41084854 51.13997067 47.57230523 50.0546875 48.734375 C49.5297168 49.29447266 49.00474609 49.85457031 48.46386719 50.43164062 C46.59640177 52.43240744 44.75626182 54.45486868 42.9375 56.5 C42.43089844 57.0671875 41.92429687 57.634375 41.40234375 58.21875 C39.71353517 60.36386619 38.36320952 62.63764285 37 65 C37.92619141 65.99966797 37.92619141 65.99966797 38.87109375 67.01953125 C44.06866452 72.67594389 49.05874237 78.42727924 53.8828125 84.41015625 C56.43358534 87.53038206 59.0894742 90.54386023 61.78515625 93.5390625 C63 95 63 95 63 96 C44.04092923 98.3689727 44.04092923 98.3689727 37.76367188 94.68896484 C33.91795442 91.30177524 31.05800906 87.22847141 28.28417969 82.94580078 C26.43761405 80.14786767 24.33063424 77.63945207 22.1875 75.0625 C21.135625 73.721875 20.08375 72.38125 19 71 C18.67 79.25 18.34 87.5 18 96 C12.06 96 6.12 96 0 96 C0 64.32 0 32.64 0 0 Z " fill="#FC8B00" transform="translate(649,557)"/>
<path d="M0 0 C5.94 0 11.88 0 18 0 C18.33 14.19 18.66 28.38 19 43 C20.98 40.525 20.98 40.525 23 38 C28.56414157 33.52449482 33.57757879 33.38598359 40.62109375 33.625 C46.25470076 34.25023269 49.86787266 35.71011436 53.7421875 39.87109375 C59.31919644 46.92907875 60.29046205 52.49681503 60.1953125 61.33203125 C60.1924826 62.32377853 60.18965271 63.31552582 60.18673706 64.33732605 C60.17556804 67.49584159 60.15046927 70.65407057 60.125 73.8125 C60.11496597 75.95767819 60.10584086 78.10286083 60.09765625 80.24804688 C60.07563939 85.49880784 60.0411319 90.74935538 60 96 C54.06 96 48.12 96 42 96 C41.94392578 91.98972656 41.94392578 91.98972656 41.88671875 87.8984375 C41.84045104 85.29695656 41.78923653 82.69561652 41.73754883 80.09423828 C41.70438227 78.29224271 41.67632475 76.49014533 41.65356445 74.68798828 C41.61986568 72.09103177 41.56754351 69.49500134 41.51171875 66.8984375 C41.50532883 66.0982016 41.4989389 65.2979657 41.49235535 64.47348022 C41.36566084 59.60687695 40.64227948 56.23762575 38 52 C34.6466301 49.36520936 31.12471594 49.57330525 27 50 C23.695583 51.68338224 21.59084023 52.86694576 19.85791016 56.19018555 C18.80860411 59.62685694 18.67464237 62.67698395 18.5859375 66.26953125 C18.56657135 66.95053391 18.5472052 67.63153656 18.5272522 68.33317566 C18.46781868 70.49282593 18.421218 72.65253057 18.375 74.8125 C18.33678672 76.28322544 18.29773306 77.75392929 18.2578125 79.22460938 C18.16214817 82.81620789 18.07798425 86.40796913 18 90 C15.74804937 88.73252511 13.49844253 87.46117132 11.25 86.1875 C10.61578125 85.83107422 9.9815625 85.47464844 9.328125 85.10742188 C8.709375 84.75615234 8.090625 84.40488281 7.453125 84.04296875 C6.60476074 83.56380005 6.60476074 83.56380005 5.73925781 83.07495117 C5.16530273 82.72021729 4.59134766 82.3654834 4 82 C3.31349365 81.63942505 2.6269873 81.2788501 1.91967773 80.90734863 C-0.46285037 78.54012228 -0.47071593 76.89321537 -0.49768066 73.61329651 C-0.48329956 72.88537399 -0.46891846 72.15745148 -0.45410156 71.4074707 C-0.45468567 70.63650055 -0.45526978 69.8655304 -0.45587158 69.07119751 C-0.45308429 66.52226776 -0.42196331 63.97450674 -0.390625 61.42578125 C-0.38316487 59.65887593 -0.37747086 57.89196233 -0.37347412 56.12504578 C-0.35819977 51.47400071 -0.31890264 46.82345511 -0.2746582 42.17260742 C-0.23374421 37.42698931 -0.2154714 32.68129051 -0.1953125 27.93554688 C-0.15240981 18.62344313 -0.08204543 9.31184124 0 0 Z " fill="#F3A8B6" transform="translate(438,557)"/>
<path d="M0 0 C16.16139664 -0.16465891 32.32251479 -0.28751025 48.48455143 -0.3626852 C55.99153507 -0.39854235 63.49799294 -0.44728617 71.00463867 -0.52807617 C77.55935637 -0.5985865 84.11369281 -0.64317933 90.66877931 -0.65861946 C94.1291097 -0.66762321 97.58835096 -0.68825842 101.04832649 -0.7401104 C117.74314283 -0.96213186 131.96452397 0.38949019 147.68505859 6.18116379 C153.22809443 8.14183478 158.98194419 9.41735817 164.6875 10.8125 C165.81865234 11.09802734 166.94980469 11.38355469 168.11523438 11.67773438 C174.59855312 13.28458336 181.02902814 14.56763451 187.64770508 15.47924805 C190 16 190 16 192 18 C172.01119046 20.03218096 152.15851478 20.3147519 132.08666992 20.26074219 C127.79548433 20.24933948 123.50454657 20.25613665 119.21336937 20.26761627 C73.38786021 20.37185745 73.38786021 20.37185745 55.24421692 16.46105957 C53.02529583 16.00519686 50.81480042 15.66192389 48.5703125 15.359375 C32.44607639 13.17614696 15.73660648 9.09826071 1 2 C0.67 1.34 0.34 0.68 0 0 Z " fill="#004BF5" transform="translate(287,667)"/>
<path d="M0 0 C6.27 0 12.54 0 19 0 C19.04898438 2.82949219 19.09796875 5.65898438 19.1484375 8.57421875 C19.20248148 11.32126045 19.25977556 14.06821653 19.31738281 16.81518555 C19.35561339 18.72104486 19.39047655 20.62697487 19.421875 22.53295898 C19.46765422 25.27613553 19.5256273 28.01882788 19.5859375 30.76171875 C19.59748871 31.61086349 19.60903992 32.46000824 19.62094116 33.33488464 C19.7268324 37.60072382 19.88214356 41.17496874 22 45 C25.46823601 46.734118 29.21611021 46.60029624 33 46 C37.23261784 42.20149681 38.84737746 37.80961718 39.31884766 32.21948242 C39.36011156 30.76505024 39.39134594 29.31030883 39.4140625 27.85546875 C39.43342865 27.08568192 39.4527948 26.31589508 39.4727478 25.52278137 C39.53225623 23.07779829 39.57881295 20.63276738 39.625 18.1875 C39.66320631 16.52406866 39.70225957 14.86065653 39.7421875 13.19726562 C39.83951982 9.13161367 39.91931395 5.06615238 40 1 C45.94 1 51.88 1 58 1 C58 20.8 58 40.6 58 61 C52.06 61 46.12 61 40 61 C39.505 57.535 39.505 57.535 39 54 C38.505 54.7425 38.01 55.485 37.5 56.25 C33.49749263 60.6527581 29.80161879 62.62225365 23.87109375 63.421875 C17.56207227 63.6850555 12.72172915 63.33644332 7.58203125 59.484375 C2.67694077 54.88206788 0.31164582 49.26612784 -0.17242432 42.63967896 C-0.23044586 39.91503245 -0.22497953 37.19775396 -0.1953125 34.47265625 C-0.1924826 33.48373886 -0.18965271 32.49482147 -0.18673706 31.47593689 C-0.17560142 28.33799805 -0.15050903 25.20035161 -0.125 22.0625 C-0.11496165 19.92643643 -0.1058373 17.79036836 -0.09765625 15.65429688 C-0.07568375 10.4360864 -0.04119964 5.21809266 0 0 Z " fill="#004DFB" transform="translate(833,592)"/>
<path d="M0 0 C0.88923157 -0.0033284 1.77846313 -0.0066568 2.69464111 -0.01008606 C4.56025682 -0.01511746 6.42588142 -0.01749557 8.29150391 -0.01733398 C11.1463072 -0.01953563 14.00073286 -0.03777241 16.85546875 -0.05664062 C18.67447785 -0.05957232 20.49348878 -0.06155861 22.3125 -0.0625 C23.16358337 -0.06968552 24.01466675 -0.07687103 24.89154053 -0.08427429 C25.6862677 -0.08119766 26.48099487 -0.07812103 27.29980469 -0.07495117 C27.9951532 -0.07637619 28.69050171 -0.07780121 29.40692139 -0.07926941 C31.73280114 0.21061575 33.36171226 1.02247681 35.390625 2.16796875 C34.42382812 2.2659375 33.45703125 2.36390625 32.4609375 2.46484375 C19.1881891 3.92485977 19.1881891 3.92485977 7.765625 10.41796875 C5.87268806 14.20384263 5.51687222 17.09493656 6.390625 21.16796875 C11.34373422 34.43651681 20.47427761 42.66952793 31.390625 51.16796875 C32.43677812 52.00318002 33.4823391 52.83913346 34.52734375 53.67578125 C41.20757068 58.97753254 48.06109115 63.72494928 55.43945312 68.02832031 C56.83235188 68.84189031 58.22125301 69.66232048 59.60742188 70.48730469 C95.79630417 92.00861142 134.35391256 106.97811674 175.390625 116.16796875 C175.390625 116.49796875 175.390625 116.82796875 175.390625 117.16796875 C167.1479442 116.72901481 159.52568462 115.50100787 151.578125 113.29296875 C150.46993408 112.98834717 149.36174316 112.68372559 148.2199707 112.36987305 C95.62208379 97.490568 -0.37197933 67.95590592 -31.171875 19.48046875 C-32.7192584 15.91475918 -33.35642528 13.98622575 -32.609375 10.16796875 C-28.92203031 5.00568619 -23.54991166 2.8628911 -17.609375 1.16796875 C-11.70671966 0.27726818 -5.96377085 0.00787275 0 0 Z " fill="#EFA7B4" transform="translate(335.609375,564.83203125)"/>
<path d="M0 0 C2.86659337 2.7797269 5.48037831 5.58981049 8 8.6875 C33.22947511 37.39137317 80.77488897 55.13257473 116 68 C116 68.33 116 68.66 116 69 C86.96 69 57.92 69 28 69 C20.575 51.18 20.575 51.18 13 33 C6.98609991 18.74713274 6.98609991 18.74713274 0.95532227 4.50146484 C0 2 0 2 0 0 Z " fill="#FBEC04" transform="translate(235,577)"/>
<path d="M0 0 C1.18795166 0.01244751 1.18795166 0.01244751 2.39990234 0.02514648 C11.63774673 0.29259283 17.59828731 3.28729432 24.3359375 9.58203125 C28.81110271 14.39131513 30.26367975 18.92284942 31.0625 25.4375 C27.99622294 25.65415549 24.94522762 25.81209318 21.875 25.9375 C20.57852539 26.03804687 20.57852539 26.03804687 19.25585938 26.140625 C16.63714083 26.22089224 14.57686792 26.19029299 12.0625 25.4375 C10.26589029 23.51427462 9.18620695 21.68709692 8.04321289 19.32250977 C7.13967328 17.21181319 7.13967328 17.21181319 4.6875 15.875 C0.54972984 15.18537164 -3.02661261 15.25334831 -6.68359375 17.51953125 C-9.3955158 19.67216003 -10.8314703 21.11941089 -11.9375 24.4375 C-12.08453064 26.87198818 -12.15855339 29.3112477 -12.1875 31.75 C-12.21328125 33.04550781 -12.2390625 34.34101562 -12.265625 35.67578125 C-11.85044874 40.43548055 -10.38709913 43.49651133 -7.5546875 47.2890625 C-4.19668735 49.67372927 0.14513329 48.88878064 4.0625 48.4375 C9.28077498 46.43901171 9.33340805 44.8956839 12.0625 39.4375 C18.3325 39.4375 24.6025 39.4375 31.0625 39.4375 C28.50699233 48.89287839 25.34708882 55.80929237 17.0625 61.4375 C8.93432578 66.00638951 -2.8456236 65.85696635 -11.75390625 63.78125 C-20.44974071 60.27266984 -26.1339618 54.15020088 -30.02734375 45.76953125 C-33.12592181 37.83025614 -33.34300692 28.15828659 -30.9140625 20 C-27.14701464 11.8415317 -21.61000822 5.26068331 -13.20703125 1.75 C-8.78728112 0.19855015 -4.65543374 -0.06301856 0 0 Z " fill="#E00402" transform="translate(610.9375,590.5625)"/>
<path d="M0 0 C5.58439366 3.80187515 10.11751157 7.86714123 12.75 14.19140625 C13.245 18.15140625 13.245 18.15140625 13.75 22.19140625 C7.48 22.19140625 1.21 22.19140625 -5.25 22.19140625 C-6.57 19.55140625 -7.89 16.91140625 -9.25 14.19140625 C-12.79786463 11.95064964 -16.11431999 11.68499645 -20.25 12.19140625 C-24.1500498 14.0267238 -26.41068897 15.83433127 -28.125 19.75390625 C-30.19616549 26.41388152 -30.4463006 33.37756344 -27.4375 39.75390625 C-25.89683627 42.59321374 -25.08555167 43.30103847 -22.25 45.19140625 C-17.48178561 45.88643411 -13.48443842 45.88577786 -9.25 43.50390625 C-6.85212859 40.98566932 -6.85212859 40.98566932 -5.25 36.19140625 C1.02 36.19140625 7.29 36.19140625 13.75 36.19140625 C12.59015798 44.31030036 10.12174177 49.81966448 4.3125 55.62890625 C-5.24375995 61.45589403 -15.94199974 62.73623207 -26.91796875 60.6953125 C-35.19627027 58.17335145 -40.24814252 53.81064355 -44.98828125 46.66796875 C-49.64519127 37.52716084 -50.10648811 25.32904844 -47.15234375 15.5625 C-44.32097202 9.52979063 -40.98854357 4.67840858 -35.25 1.19140625 C-34.57839844 0.78148437 -33.90679688 0.3715625 -33.21484375 -0.05078125 C-23.86066236 -4.70380458 -9.23696902 -5.17775412 0 0 Z " fill="#FBEB00" transform="translate(783.25,593.80859375)"/>
<path d="M0 0 C4.0624031 1.8244353 8.20815655 3.23811983 12.44696045 4.5887146 C13.71668224 5.00805998 14.98622408 5.42795076 16.2555542 5.84848022 C17.43504639 6.23326538 18.61453857 6.61805054 19.82977295 7.01449585 C21.13851751 7.44567898 22.44711027 7.87732317 23.7555542 8.30941772 C26.8205322 9.31972529 29.88683439 10.3257233 32.95477295 11.32699585 C32.95477295 11.65699585 32.95477295 11.98699585 32.95477295 12.32699585 C16.86460525 12.64536787 0.77442622 12.91658448 -15.31740952 13.13264465 C-22.79022872 13.23406327 -30.26223064 13.35053849 -37.73419189 13.50326538 C-44.25156922 13.63644148 -50.76867418 13.74054754 -57.28704572 13.81067085 C-60.7344929 13.84874895 -64.18038508 13.90074594 -67.62697601 13.98764038 C-93.62393747 14.62568763 -93.62393747 14.62568763 -101.97106934 7.47836304 C-102.65554138 6.76841187 -103.34001343 6.05846069 -104.04522705 5.32699585 C-104.86311707 4.5678186 -105.68100708 3.80864136 -106.52368164 3.02645874 C-109.44210278 0.29101462 -111.82309977 -2.33981323 -114.04522705 -5.67300415 C-114.04522705 -6.66300415 -114.04522705 -7.65300415 -114.04522705 -8.67300415 C-103.22137802 -9.06388046 -92.39757937 -9.3880402 -81.56941795 -9.63408947 C-76.53766103 -9.75037452 -71.50842844 -9.88701421 -66.4788208 -10.07559204 C-42.14779525 -10.9708719 -22.32570626 -10.30412297 0 0 Z " fill="#03821C" transform="translate(378.04522705078125,654.6730041503906)"/>
<path d="M0 0 C6.27 0 12.54 0 19 0 C19 31.68 19 63.36 19 96 C12.73 96 6.46 96 0 96 C0 64.32 0 32.64 0 0 Z " fill="#007F25" transform="translate(804,557)"/>
<path d="M0 0 C32.13981043 0 32.13981043 0 38.12109375 4.6484375 C42.90967448 10.92900926 45.07068965 15.98321125 44 24 C42.1783401 29.78584024 39.14357922 33.70034541 34 37 C27.22143807 39.57396686 20.1406269 39.16415234 13 39 C13 45.6 13 52.2 13 59 C8.71 59 4.42 59 0 59 C0 39.53 0 20.06 0 0 Z " fill="#F7FAF7" transform="translate(338,491)"/>
<path d="M0 0 C3.94398082 2.08361251 6.58727648 4.24687452 9 8 C9.7425 7.236875 10.485 6.47375 11.25 5.6875 C12.1575 4.800625 13.065 3.91375 14 3 C14.598125 2.401875 15.19625 1.80375 15.8125 1.1875 C19.14423319 -0.62115516 22.34416221 -0.50913021 26 0 C31.26594344 1.85856827 33.79395768 4.60314196 37 9 C38.15927528 12.47782583 38.11313066 15.18803257 38.09765625 18.85546875 C38.0962413 19.51710526 38.09482635 20.17874176 38.09336853 20.86042786 C38.08777996 22.96949828 38.07522965 25.07846177 38.0625 27.1875 C38.05748352 28.61913909 38.05292087 30.05077985 38.04882812 31.48242188 C38.0378143 34.98831588 38.02055755 38.4941475 38 42 C34.04 42 30.08 42 26 42 C25.96261719 40.16953125 25.92523437 38.3390625 25.88671875 36.453125 C25.8210647 34.05206265 25.75461717 31.6510219 25.6875 29.25 C25.65366211 27.44015625 25.65366211 27.44015625 25.61914062 25.59375 C25.58369141 24.43359375 25.54824219 23.2734375 25.51171875 22.078125 C25.48553467 21.00981445 25.45935059 19.94150391 25.43237305 18.84082031 C24.9485471 15.66193904 24.28777947 14.23976557 22 12 C18.5 11.33333333 18.5 11.33333333 15 12 C11.82085475 15.11242416 11.59461907 17.73954181 11.48828125 22.078125 C11.45283203 23.23828125 11.41738281 24.3984375 11.38085938 25.59375 C11.35830078 26.8003125 11.33574219 28.006875 11.3125 29.25 C11.27833984 30.47203125 11.24417969 31.6940625 11.20898438 32.953125 C11.1265347 35.96842746 11.06159029 38.98419936 11 42 C6.71 42 2.42 42 -2 42 C-2.04898438 40.00195312 -2.09796875 38.00390625 -2.1484375 35.9453125 C-2.20405765 34.01251243 -2.25974546 32.07971363 -2.31738281 30.14697266 C-2.37454036 28.14113029 -2.42168596 26.13501082 -2.46875 24.12890625 C-2.50742187 22.87207031 -2.54609375 21.61523438 -2.5859375 20.3203125 C-2.6173584 19.15773926 -2.6487793 17.99516602 -2.68115234 16.79736328 C-2.72157869 13.86343518 -2.72157869 13.86343518 -5 12 C-9.57250477 11.47544139 -9.57250477 11.47544139 -13.69067383 13.13208008 C-15.57325329 15.81781855 -15.43523254 17.94090622 -15.51171875 21.19921875 C-15.54716797 22.40771484 -15.58261719 23.61621094 -15.61914062 24.86132812 C-15.65297852 26.7552832 -15.65297852 26.7552832 -15.6875 28.6875 C-15.72166016 29.96173828 -15.75582031 31.23597656 -15.79101562 32.54882812 C-15.87360195 35.69890643 -15.93847391 38.84943999 -16 42 C-20.29 42 -24.58 42 -29 42 C-29 28.8 -29 15.6 -29 2 C-24.71 2 -20.42 2 -16 2 C-15.67 2.99 -15.34 3.98 -15 5 C-14.21625 4.360625 -13.4325 3.72125 -12.625 3.0625 C-8.5137483 -0.16776919 -5.15921112 -0.70134527 0 0 Z " fill="#F7FAF7" transform="translate(602,508)"/>
<path d="M0 0 C0 0.33 0 0.66 0 1 C-1.15757812 1.17015625 -2.31515625 1.3403125 -3.5078125 1.515625 C-5.04699798 1.75964221 -6.58605394 2.00447736 -8.125 2.25 C-8.88554687 2.35957031 -9.64609375 2.46914063 -10.4296875 2.58203125 C-15.47673057 3.4087021 -18.93029068 4.70959672 -23 8 C-25.46789484 11.70184226 -25.26893825 13.23017344 -24.64453125 17.484375 C-19.67910997 36.86456474 4.70041141 51.1357109 20.65698242 60.77880859 C50.1625272 78.15993952 79.99730721 89.34902713 113 98 C108.3049219 99.44952676 104.67433907 98.32116406 100 97.1875 C99.08645752 96.96666748 98.17291504 96.74583496 97.23168945 96.51831055 C51.05207855 84.78203459 -24.01580797 57.53680438 -54.625 17.9375 C-56.57758699 13.76606416 -56.72913107 11.59352575 -56 7 C-50.64086223 0.98730884 -43.96920497 -0.17945811 -36.1875 -0.84375 C-24.10149069 -1.43620144 -12.04640145 -1.10048692 0 0 Z " fill="#F8FBF8" transform="translate(422,583)"/>
<path d="M0 0 C3.07759103 1.5506781 3.48071683 1.75465048 4.625 5.1875 C5.285 5.1875 5.945 5.1875 6.625 5.1875 C6.625 3.5375 6.625 1.8875 6.625 0.1875 C10.585 0.1875 14.545 0.1875 18.625 0.1875 C18.625 13.3875 18.625 26.5875 18.625 40.1875 C14.665 40.1875 10.705 40.1875 6.625 40.1875 C6.625 38.5375 6.625 36.8875 6.625 35.1875 C5.965 35.1875 5.305 35.1875 4.625 35.1875 C4.439375 35.785625 4.25375 36.38375 4.0625 37 C1.97008711 40.18410657 -0.83070801 41.19739414 -4.375 42.1875 C-9.63938491 42.74164578 -12.94896023 42.10680283 -17.375 39.1875 C-21.93386987 34.78095514 -25.0381377 30.60424617 -25.67578125 24.13671875 C-25.72739686 9.77037414 -25.72739686 9.77037414 -20.5 4.18359375 C-14.14681439 -1.59733801 -8.25357302 -3.88229108 0 0 Z " fill="#FBFCFB" transform="translate(544.375,509.8125)"/>
<path d="M0 0 C2.68300524 1.39309887 4.37827402 2.37536791 6.25 4.6875 C6.58 3.3675 6.91 2.0475 7.25 0.6875 C11.21 0.6875 15.17 0.6875 19.25 0.6875 C19.25 13.8875 19.25 27.0875 19.25 40.6875 C15.29 40.6875 11.33 40.6875 7.25 40.6875 C6.92 39.3675 6.59 38.0475 6.25 36.6875 C5.30125 37.491875 4.3525 38.29625 3.375 39.125 C-0.25259381 42.20056866 -2.6191508 43.04008508 -7.5234375 42.96875 C-12.56466176 42.33196378 -16.47052136 39.93239813 -20.0625 36.4375 C-24.3356685 29.473818 -25.92294844 22.87536338 -24.75 14.6875 C-22.68856843 7.76626839 -19.24879814 3.3264913 -13.015625 -0.31640625 C-8.19227161 -2.43701852 -4.83512227 -1.69229279 0 0 Z " fill="#F9FBF9" transform="translate(409.75,509.3125)"/>
<path d="M0 0 C4.77961317 3.84447146 8.40612197 8.42023523 9.421875 14.54296875 C9.78239533 21.64321643 8.14757798 27.21219597 4 33 C-1.00344008 38.06286336 -6.8440535 39.6378422 -13.8125 40.4375 C-19.98868931 40.23362579 -25.67722223 37.4119349 -29.93359375 32.9921875 C-35.12241081 26.24796964 -35.73706897 20.40685917 -35 12 C-33.23453642 5.21927044 -28.8105396 1.55413288 -23 -2 C-15.22532655 -6.2760704 -7.38086969 -3.90077051 0 0 Z " fill="#F8FBF8" transform="translate(852,512)"/>
<path d="M0 0 C5.44879398 3.24383455 8.11259347 7.2104103 10.0078125 13.1953125 C10.0078125 16.1653125 10.0078125 19.1353125 10.0078125 22.1953125 C0.1078125 22.1953125 -9.7921875 22.1953125 -19.9921875 22.1953125 C-17.98067487 28.97021142 -17.98067487 28.97021142 -14.9921875 30.1953125 C-11.31888786 30.32888703 -8.49365791 30.3624693 -4.9921875 29.1953125 C-4.3321875 28.2053125 -3.6721875 27.2153125 -2.9921875 26.1953125 C-0.171875 25.90234375 -0.171875 25.90234375 3.1328125 26.0078125 C4.22851562 26.03488281 5.32421875 26.06195312 6.453125 26.08984375 C7.71769531 26.14205078 7.71769531 26.14205078 9.0078125 26.1953125 C8.25378922 30.92801181 6.60781544 34.0085752 3.0078125 37.1953125 C-2.99375786 40.60409917 -9.16410619 42.12736654 -15.9921875 41.1953125 C-22.86455665 38.77390758 -27.82403095 35.69104887 -31.0546875 28.9921875 C-33.18209135 22.64543268 -33.24008561 14.7228355 -31 8.390625 C-24.15445179 -3.09597284 -11.4970752 -5.72850785 0 0 Z " fill="#F6F9F6" transform="translate(679.9921875,510.8046875)"/>
<path d="M0 0 C3.50625 -0.061875 7.0125 -0.12375 10.625 -0.1875 C11.71893066 -0.21481201 12.81286133 -0.24212402 13.93994141 -0.27026367 C19.35246716 -0.31643547 23.39420255 -0.19722832 28 3 C30.45970225 6.68955337 30.57750613 9.71611123 30 14 C28.625 16.5 28.625 16.5 27 18 C26.34 18 25.68 18 25 18 C25 18.66 25 19.32 25 20 C25.763125 20.2475 26.52625 20.495 27.3125 20.75 C30.40974934 22.19058109 31.47511304 22.95022608 33 26 C33.53290346 31.5066691 33.33893903 35.36856844 30 40 C23.80394403 43.56946703 18.07449898 43.35593107 11.0625 43.1875 C7.411875 43.125625 3.76125 43.06375 0 43 C0 28.81 0 14.62 0 0 Z " fill="#F7FAF7" transform="translate(306,703)"/>
<path d="M0 0 C5.42522306 2.02116153 8.04621787 4.92716242 11.09716797 9.72558594 C12.34597501 12.87158011 12.22394553 15.57442773 12.1953125 18.953125 C12.1924826 19.61334656 12.18965271 20.27356812 12.18673706 20.95379639 C12.17558415 23.05271897 12.15048946 25.15120742 12.125 27.25 C12.11496384 28.67707715 12.1058391 30.10416102 12.09765625 31.53125 C12.07566111 35.02097328 12.04116536 38.51044423 12 42 C8.04 42 4.08 42 0 42 C-0.05607422 39.37998047 -0.05607422 39.37998047 -0.11328125 36.70703125 C-0.17894406 34.40883281 -0.24539129 32.11065668 -0.3125 29.8125 C-0.33505859 28.66201172 -0.35761719 27.51152344 -0.38085938 26.32617188 C-0.4340332 24.65844727 -0.4340332 24.65844727 -0.48828125 22.95703125 C-0.51446533 21.93585205 -0.54064941 20.91467285 -0.56762695 19.86254883 C-1.06648064 16.55986139 -1.95298689 14.63085582 -4 12 C-7.45728358 11.24988633 -7.45728358 11.24988633 -11 12 C-13.81951169 14.13637565 -14.87219536 15.33491288 -15.54589844 18.84082031 C-15.5668457 19.90913086 -15.58779297 20.97744141 -15.609375 22.078125 C-15.64160156 23.23828125 -15.67382812 24.3984375 -15.70703125 25.59375 C-15.72830078 27.40359375 -15.72830078 27.40359375 -15.75 29.25 C-15.77964844 30.47203125 -15.80929687 31.6940625 -15.83984375 32.953125 C-15.91051413 35.96839445 -15.95752397 38.98420161 -16 42 C-19.96 42 -23.92 42 -28 42 C-28 28.8 -28 15.6 -28 2 C-24.04 2 -20.08 2 -16 2 C-15.67 3.32 -15.34 4.64 -15 6 C-14.05125 5.195625 -13.1025 4.39125 -12.125 3.5625 C-8.01829715 0.08073019 -5.49876764 -0.36658451 0 0 Z " fill="#FDFDFD" transform="translate(726,508)"/>
<path d="M0 0 C1.07507813 -0.00257813 2.15015625 -0.00515625 3.2578125 -0.0078125 C5.875 0.125 5.875 0.125 6.875 1.125 C6.94705511 2.81108966 6.95886068 4.50000659 6.9375 6.1875 C6.92847656 7.10660156 6.91945313 8.02570313 6.91015625 8.97265625 C6.89855469 9.68292969 6.88695312 10.39320313 6.875 11.125 C5.82699219 11.18107422 5.82699219 11.18107422 4.7578125 11.23828125 C3.39269531 11.33689453 3.39269531 11.33689453 2 11.4375 C0.64261719 11.52451172 0.64261719 11.52451172 -0.7421875 11.61328125 C-3.48721601 11.9132039 -3.48721601 11.9132039 -5.125 15.125 C-5.58101261 17.63396686 -5.58101261 17.63396686 -5.75 20.3125 C-5.87375 21.900625 -5.9975 23.48875 -6.125 25.125 C-1.835 25.125 2.455 25.125 6.875 25.125 C6.875 28.425 6.875 31.725 6.875 35.125 C2.585 35.125 -1.705 35.125 -6.125 35.125 C-6.125 45.025 -6.125 54.925 -6.125 65.125 C-10.085 65.125 -14.045 65.125 -18.125 65.125 C-18.125 55.225 -18.125 45.325 -18.125 35.125 C-21.095 35.125 -24.065 35.125 -27.125 35.125 C-27.125 31.825 -27.125 28.525 -27.125 25.125 C-24.155 25.125 -21.185 25.125 -18.125 25.125 C-18.17720703 23.82175781 -18.17720703 23.82175781 -18.23046875 22.4921875 C-18.50894794 10.63693059 -18.50894794 10.63693059 -15.125 6.125 C-10.36462216 1.37762866 -6.67568332 -0.01608598 0 0 Z " fill="#FBFCFB" transform="translate(893.125,484.875)"/>
<path d="M0 0 C4.29 0 8.58 0 13 0 C13 5.28 13 10.56 13 16 C16.96 16 20.92 16 25 16 C25 19.3 25 22.6 25 26 C21.04 26 17.08 26 13 26 C13.33 32.27 13.66 38.54 14 45 C17.42932071 46.71466036 21.21716065 46.05404056 25 46 C25 49.63 25 53.26 25 57 C19.53893672 58.82035443 13.43965896 58.87734512 8.0625 56.6875 C4.27814917 54.60224546 2.65092213 53.49974367 0.93359375 49.54296875 C-0.30498812 44.84257648 -0.21466859 40.46020645 -0.125 35.625 C-0.11597656 34.69816406 -0.10695313 33.77132812 -0.09765625 32.81640625 C-0.07423101 30.54415841 -0.03836473 28.2720447 0 26 C-2.97 26 -5.94 26 -9 26 C-9 22.7 -9 19.4 -9 16 C-6.03 16 -3.06 16 0 16 C0 10.72 0 5.44 0 0 Z " fill="#F6F9F6" transform="translate(752,494)"/>
<path d="M0 0 C4.47946349 2.28199084 6.81718831 4.50856614 9 9 C9.3984375 12.33984375 9.3984375 12.33984375 9.375 15.9375 C9.38273438 17.12214844 9.39046875 18.30679688 9.3984375 19.52734375 C8.84191014 24.37786166 7.12131014 27.66844421 4 31.375 C-0.47199247 33.79732925 -5.01539763 33.82457655 -10 33 C-11.32 32.01 -12.64 31.02 -14 30 C-14 35.28 -14 40.56 -14 46 C-16.64 46 -19.28 46 -22 46 C-22 31.15 -22 16.3 -22 1 C-19.36 1 -16.72 1 -14 1 C-13.67 1.99 -13.34 2.98 -13 4 C-12.34 3.34 -11.68 2.68 -11 2 C-7.27847305 -0.48101797 -4.30336097 -0.83535831 0 0 Z " fill="#F9FBF9" transform="translate(692,713)"/>
<path d="M0 0 C2.64 0 5.28 0 8 0 C8 14.85 8 29.7 8 45 C5.36 45 2.72 45 0 45 C-0.33 44.01 -0.66 43.02 -1 42 C-1.55816406 42.48597656 -2.11632812 42.97195313 -2.69140625 43.47265625 C-6.56350158 46.03439783 -10.51783822 45.64030883 -15 45 C-18.91537326 42.91735465 -20.92212794 40.29825792 -22.49609375 36.125 C-23.81815147 30.54981084 -23.68131339 25.04394017 -21.875 19.625 C-19.23921258 15.93489761 -16.66083982 12.5530373 -12.0078125 11.5859375 C-7.1043438 11.38239729 -5.36346725 12.38191965 -1 15 C-0.67 10.05 -0.34 5.1 0 0 Z " fill="#F7FAF7" transform="translate(538,701)"/>
<path d="M0 0 C2.86659337 2.7797269 5.48037831 5.58981049 8 8.6875 C23.37427765 26.17899809 47.33735759 37.17788959 68 47 C68 47.33 68 47.66 68 48 C52.16 48 36.32 48 20 48 C14.36690647 36.73381295 14.36690647 36.73381295 11.9921875 30.99609375 C11.74002472 30.38790298 11.48786194 29.77971222 11.22805786 29.15309143 C10.70379673 27.88608465 10.18132339 26.61833664 9.66064453 25.34985352 C8.87391577 23.43486085 8.07994823 21.52298625 7.28515625 19.61132812 C4.60939621 13.14297181 2.10298716 6.67879714 0 0 Z " fill="#FC8E00" transform="translate(235,577)"/>
<path d="M0 0 C21 0 21 0 28 4 C31.21251428 7.62703225 31.52699652 11.09891702 31.34765625 15.78515625 C30.61454846 20.4556295 28.20093301 23.07620538 24.5625 25.875 C19.01897772 27.62558598 13.79555396 27.17741492 8 27 C8 32.28 8 37.56 8 43 C5.36 43 2.72 43 0 43 C0 28.81 0 14.62 0 0 Z " fill="#F8FBF8" transform="translate(571,703)"/>
<path d="M0 0 C4.51016449 3.5179283 6.75013117 6.50670732 7.46875 12.125 C7.69006704 18.91205584 6.63056109 23.32714831 2.3125 28.6875 C-2.28580202 32.36614161 -7.11854775 32.95146895 -12.875 32.4375 C-17.85828604 30.48327018 -21.62984117 28.07114529 -23.9609375 23.140625 C-25.67698487 18.06581824 -25.79895754 12.45281053 -24.22265625 7.30859375 C-22.33110525 3.54984648 -19.69820429 0.96574075 -15.9296875 -0.90234375 C-10.60085003 -2.61446073 -5.04395152 -2.5003279 0 0 Z " fill="#F2F7F2" transform="translate(731.875,714.5625)"/>
<path d="M0 0 C4.15843475 3.663383 7.19478037 6.85230501 7.8984375 12.51171875 C8.12705979 18.11296478 7.54561558 22.00731893 4.2421875 26.6171875 C0.45949717 30.58261649 -3.63609356 32.10263198 -9 32.75 C-14.28485436 32.06492629 -17.715734 30.31149694 -21.1875 26.3125 C-25.08455492 20.96796753 -25.00263191 15.72331165 -24.375 9.3125 C-23.07928756 5.04289335 -20.77207898 2.6222216 -17.25 -0.125 C-11.5587883 -2.9522471 -5.60985754 -2.80492877 0 0 Z " fill="#F4F8F4" transform="translate(655.375,714.6875)"/>
<path d="M0 0 C4.13931394 2.43309026 6.54401841 4.66351135 8.67578125 9.0546875 C9.67957085 15.61097091 9.11437615 21.5487343 6.0390625 27.43359375 C3.27722379 30.7177286 0.55349557 31.93149953 -3.6640625 32.5234375 C-14.57683896 32.61822818 -14.57683896 32.61822818 -18.07421875 29.8671875 C-22.68889915 24.098837 -22.86808324 18.66691414 -22.77734375 11.453125 C-22.21538809 7.23845751 -21.01457698 5.21594758 -18.02734375 2.2890625 C-12.57444271 -1.66304009 -6.34326773 -2.57995091 0 0 Z " fill="#F7FAF7" transform="translate(857.32421875,713.9453125)"/>
<path d="M0 0 C4.797772 1.64467235 8.03677511 4.31147501 10.34375 8.9453125 C12.07732065 14.37303965 11.48009924 19.45862875 9.8125 24.8125 C7.30404961 29.22391276 4.89092832 32.36969056 0 34 C-4.66507623 34.3823833 -7.04127641 34.47936179 -11.25 32.375 C-15.43714405 28.75883013 -17.72132411 26.39433771 -18.3828125 20.7109375 C-18.54983695 15.42182995 -18.55691008 11.24233788 -16.375 6.375 C-11.40355425 1.40355425 -7.20945649 -1.35264464 0 0 Z " fill="#016503" transform="translate(542,606)"/>
<path d="M0 0 C4.51343802 2.29496848 6.17984288 4.72754472 8.03125 9.3125 C8.7525395 15.03083114 9.51552379 21.96608002 6.21875 27 C5.496875 27.763125 4.775 28.52625 4.03125 29.3125 C3.515625 29.910625 3 30.50875 2.46875 31.125 C-0.7326706 33.7696518 -4.64509255 33.76283571 -8.61328125 33.73046875 C-12.72499973 33.00086033 -15.36248367 30.4602344 -17.96875 27.3125 C-21.57518807 21.88462856 -20.73824809 14.52155357 -19.96875 8.3125 C-16.19818446 0.57549538 -8.2248898 -2.87218374 0 0 Z " fill="#016201" transform="translate(940.96875,606.6875)"/>
<path d="M0 0 C3.96 0 7.92 0 12 0 C12 21.12 12 42.24 12 64 C8.04 64 4.08 64 0 64 C0 42.88 0 21.76 0 0 Z " fill="#FEFEFE" transform="translate(476,486)"/>
<path d="M0 0 C3.17052662 1.66545172 5.37546311 3.75092622 7 7 C7.08372659 8.52148326 7.10730027 10.04655778 7.09765625 11.5703125 C7.09443359 12.46621094 7.09121094 13.36210938 7.08789062 14.28515625 C7.07951172 15.22230469 7.07113281 16.15945313 7.0625 17.125 C7.05798828 18.06988281 7.05347656 19.01476562 7.04882812 19.98828125 C7.03702357 22.32558387 7.02055759 24.66276061 7 27 C8.32 27 9.64 27 11 27 C11.042721 28.66611905 11.04063832 30.33382885 11 32 C10 33 10 33 8.15234375 33.09765625 C6.1015625 33.06510417 4.05078125 33.03255208 2 33 C1.34 31.68 0.68 30.36 0 29 C-0.66 29 -1.32 29 -2 29 C-2.33 29.99 -2.66 30.98 -3 32 C-6.24920574 34.28647811 -9.11060074 34.46672791 -13 34 C-18.70769231 30.87692308 -18.70769231 30.87692308 -20 27 C-20.4542763 22.9115133 -20.4822698 20.75785254 -18.25 17.25 C-13.5485744 13.99516689 -8.55527625 13.08979103 -3 12 C-2.67 10.68 -2.34 9.36 -2 8 C-7.50366792 7.67625483 -11.43672206 7.46713966 -16 11 C-16.99 9.68 -17.98 8.36 -19 7 C-18.01526648 4.14427279 -17.0416157 3.02987794 -14.5625 1.25 C-9.63406516 -0.47927538 -5.16559634 -0.84304985 0 0 Z " fill="#F1F6F1" transform="translate(463,713)"/>
<path d="M0 0 C1 1 1 1 1.09765625 3.72265625 C1.08605469 4.82480469 1.07445312 5.92695312 1.0625 7.0625 C1.05347656 8.16722656 1.04445313 9.27195312 1.03515625 10.41015625 C1.02355469 11.26480469 1.01195312 12.11945312 1 13 C-0.35544922 13.05607422 -0.35544922 13.05607422 -1.73828125 13.11328125 C-3.50751953 13.21189453 -3.50751953 13.21189453 -5.3125 13.3125 C-6.48425781 13.37050781 -7.65601563 13.42851563 -8.86328125 13.48828125 C-12.13454328 14.02194915 -13.09980288 14.37344766 -15 17 C-16.25838557 19.51677113 -16.20818973 21.41293288 -16.31640625 24.2265625 C-16.35830078 25.2578125 -16.40019531 26.2890625 -16.44335938 27.3515625 C-16.50233398 28.97191406 -16.50233398 28.97191406 -16.5625 30.625 C-16.60568359 31.71296875 -16.64886719 32.8009375 -16.69335938 33.921875 C-16.79964427 36.6144257 -16.90034504 39.30719576 -17 42 C-20.96 42 -24.92 42 -29 42 C-29 28.8 -29 15.6 -29 2 C-25.04 2 -21.08 2 -17 2 C-16.67 3.65 -16.34 5.3 -16 7 C-15.51789063 6.57847656 -15.03578125 6.15695312 -14.5390625 5.72265625 C-13.90742188 5.17480469 -13.27578125 4.62695312 -12.625 4.0625 C-11.68527344 3.24458984 -11.68527344 3.24458984 -10.7265625 2.41015625 C-7.22953747 -0.44601125 -4.43289736 -0.16119627 0 0 Z " fill="#FAFCFA" transform="translate(469,508)"/>
<path d="M0 0 C3.46738075 0.74749694 5.06634693 2.72184597 7.15625 5.46484375 C8.51325647 8.17885669 8.2686361 10.31330691 8.25390625 13.34765625 C8.25068359 14.51425781 8.24746094 15.68085937 8.24414062 16.8828125 C8.23576172 18.10613281 8.22738281 19.32945312 8.21875 20.58984375 C8.21423828 21.82089844 8.20972656 23.05195312 8.20507812 24.3203125 C8.1932633 27.36853767 8.17679028 30.41666689 8.15625 33.46484375 C5.51625 33.46484375 2.87625 33.46484375 0.15625 33.46484375 C-0.33875 21.08984375 -0.33875 21.08984375 -0.84375 8.46484375 C-8.26399503 7.59664646 -8.26399503 7.59664646 -10.81176758 10.15332031 C-11.96751997 12.74207442 -12.26919332 14.61938458 -12.35546875 17.44921875 C-12.39091797 18.38378906 -12.42636719 19.31835938 -12.46289062 20.28125 C-12.49672852 21.73337891 -12.49672852 21.73337891 -12.53125 23.21484375 C-12.56541016 24.19839844 -12.59957031 25.18195312 -12.63476562 26.1953125 C-12.71710273 28.61837574 -12.78629838 31.04108373 -12.84375 33.46484375 C-15.48375 33.46484375 -18.12375 33.46484375 -20.84375 33.46484375 C-20.84375 22.90484375 -20.84375 12.34484375 -20.84375 1.46484375 C-18.20375 1.46484375 -15.56375 1.46484375 -12.84375 1.46484375 C-12.51375 2.45484375 -12.18375 3.44484375 -11.84375 4.46484375 C-11.204375 3.80484375 -10.565 3.14484375 -9.90625 2.46484375 C-6.31597165 0.12017218 -4.20301176 -0.17512549 0 0 Z " fill="#FAFCFA" transform="translate(894.84375,712.53515625)"/>
<path d="M0 0 C5.5 3 5.5 3 7 6 C7.08527628 8.03232634 7.10716135 10.06747006 7.09765625 12.1015625 C7.09443359 13.31328125 7.09121094 14.525 7.08789062 15.7734375 C7.07951172 17.04445313 7.07113281 18.31546875 7.0625 19.625 C7.05798828 20.90375 7.05347656 22.1825 7.04882812 23.5 C7.03701203 26.66671292 7.02053815 29.83333356 7 33 C4.36 33 1.72 33 -1 33 C-1.02505615 32.27820557 -1.0501123 31.55641113 -1.07592773 30.81274414 C-1.19151302 27.562465 -1.31440774 24.31250312 -1.4375 21.0625 C-1.47681641 19.92619141 -1.51613281 18.78988281 -1.55664062 17.61914062 C-1.59853516 16.53955078 -1.64042969 15.45996094 -1.68359375 14.34765625 C-1.72025146 13.34742432 -1.75690918 12.34719238 -1.79467773 11.31665039 C-1.74671841 9.03930812 -1.74671841 9.03930812 -3 8 C-6.41600593 7.58307147 -6.41600593 7.58307147 -10 8 C-12.82421772 10.84659662 -13.39157377 13.04361962 -13.51171875 16.984375 C-13.54716797 17.91894531 -13.58261719 18.85351562 -13.61914062 19.81640625 C-13.65297852 21.26853516 -13.65297852 21.26853516 -13.6875 22.75 C-13.72166016 23.73355469 -13.75582031 24.71710937 -13.79101562 25.73046875 C-13.87335273 28.15353199 -13.94254838 30.57623998 -14 33 C-16.64 33 -19.28 33 -22 33 C-22 22.44 -22 11.88 -22 1 C-19.36 1 -16.72 1 -14 1 C-13.67 1.99 -13.34 2.98 -13 4 C-12.34 3.34 -11.68 2.68 -11 2 C-7.28828813 -0.47447458 -4.29444421 -0.85553381 0 0 Z " fill="#F9FBF9" transform="translate(501,713)"/>
<path d="M0 0 C3.625 1.5 3.625 1.5 6 3 C6 6 6 6 4.88671875 7.73828125 C3 9 3 9 0.08203125 8.85546875 C-1.53638672 8.52482422 -1.53638672 8.52482422 -3.1875 8.1875 C-4.27417969 7.97480469 -5.36085938 7.76210938 -6.48046875 7.54296875 C-7.31191406 7.36378906 -8.14335938 7.18460938 -9 7 C-9 8.65 -9 10.3 -9 12 C-8.02160156 12.14695312 -8.02160156 12.14695312 -7.0234375 12.296875 C-1.38000545 13.26241795 2.55094954 14.34949706 7 18 C8.41000664 20.82001327 8.24548451 22.87007255 8 26 C6.51628707 29.75292093 5.30526706 30.82975491 1.75 32.8125 C-4.93043502 34.92797109 -9.26031022 34.25174097 -15.3984375 31.265625 C-17 30 -17 30 -17.81640625 27.96875 C-18 26 -18 26 -16.5625 24.25 C-16.046875 23.8375 -15.53125 23.425 -15 23 C-10.125 24.875 -10.125 24.875 -9 26 C-7.48071962 26.07179964 -5.95832518 26.08392007 -4.4375 26.0625 C-3.61121094 26.05347656 -2.78492188 26.04445313 -1.93359375 26.03515625 C-1.29550781 26.02355469 -0.65742187 26.01195312 0 26 C-0.04605682 24.03124159 -0.04605682 24.03124159 -1 22 C-3.64305087 20.81224986 -3.64305087 20.81224986 -6.8125 20.0625 C-10.53902106 18.91928664 -12.74255574 18.21648722 -15.75 15.6875 C-17.41401982 12.10985738 -17.62712815 9.90213072 -17 6 C-11.86696114 -0.21367862 -7.72499584 -0.70871521 0 0 Z " fill="#F2F7F2" transform="translate(927,713)"/>
<path d="M0 0 C4.29 0 8.58 0 13 0 C13 13.2 13 26.4 13 40 C8.71 40 4.42 40 0 40 C0 26.8 0 13.6 0 0 Z " fill="#F3F7F3" transform="translate(498,510)"/>
<path d="M0 0 C3.625 1.5 3.625 1.5 6 3 C5.75 4.875 5.75 4.875 5 7 C3.0625 8.3125 3.0625 8.3125 1 9 C0.34 8.67 -0.32 8.34 -1 8 C-2.37342831 7.9310528 -3.75002102 7.91532292 -5.125 7.9375 C-6.40375 7.958125 -7.6825 7.97875 -9 8 C-9 8.99 -9 9.98 -9 11 C-8.18015625 11.24234375 -7.3603125 11.4846875 -6.515625 11.734375 C-5.43796875 12.06953125 -4.3603125 12.4046875 -3.25 12.75 C-2.18265625 13.07484375 -1.1153125 13.3996875 -0.015625 13.734375 C3.21079668 15.08846907 4.87868817 16.23219314 7 19 C7.73395774 22.06535291 7.56393939 24.90687791 7 28 C4.63297399 31.41903757 1.97242758 32.89141556 -2 34 C-7.45698461 34.50527635 -11.17676083 33.59712879 -16 31 C-17.9375 28.8125 -17.9375 28.8125 -19 27 C-17.68 25.68 -16.36 24.36 -15 23 C-12 24.5 -12 24.5 -9 26 C-6.6670134 26.04022391 -4.33293334 26.04320247 -2 26 C-1.67 24.68 -1.34 23.36 -1 22 C-1.81984375 21.75765625 -2.6396875 21.5153125 -3.484375 21.265625 C-5.10085938 20.76289062 -5.10085938 20.76289062 -6.75 20.25 C-8.35101562 19.76273438 -8.35101562 19.76273438 -9.984375 19.265625 C-13.1980383 17.91688548 -14.86370618 16.73506501 -17 14 C-17.45468446 10.81720877 -17.71154438 9.01359974 -17 6 C-11.94510308 -0.25210934 -7.67967103 -0.70455698 0 0 Z " fill="#F4F8F4" transform="translate(762,713)"/>
<path d="M0 0 C3.5625 1.5 3.5625 1.5 6 3 C6 4.32 6 5.64 6 7 C4.125 8.0625 4.125 8.0625 2 9 C1.34 8.67 0.68 8.34 0 8 C-1.37342831 7.9310528 -2.75002102 7.91532292 -4.125 7.9375 C-5.40375 7.958125 -6.6825 7.97875 -8 8 C-7.67 9.32 -7.34 10.64 -7 12 C-6.41992188 12.08636719 -5.83984375 12.17273438 -5.2421875 12.26171875 C0.5266061 13.29934004 4.15119774 14.46038708 8 19 C8.73843464 21.82780398 8.68722272 24.16520626 8 27 C6.20636089 29.8100346 4.98119065 31.50940468 2 33 C-0.26744274 33.14943856 -2.5403175 33.22144902 -4.8125 33.25 C-6.64748047 33.28867187 -6.64748047 33.28867187 -8.51953125 33.328125 C-12.23973143 32.97739906 -14.08868646 32.30322032 -17 30 C-17.33 29.01 -17.66 28.02 -18 27 C-16.68 25.68 -15.36 24.36 -14 23 C-11 24.5 -11 24.5 -8 26 C-5.6670134 26.04022391 -3.33293334 26.04320247 -1 26 C-1.495 23.525 -1.495 23.525 -2 21 C-2.59167969 20.90203125 -3.18335938 20.8040625 -3.79296875 20.703125 C-8.74131397 19.76673341 -12.62604916 19.00656663 -16 15 C-16.96747872 12.26930562 -17.298223 9.88473406 -17 7 C-12.96229201 0.12094195 -7.47042792 -0.89025825 0 0 Z " fill="#F5F8F5" transform="translate(416,713)"/>
<path d="M0 0 C0 2.64 0 5.28 0 8 C2.97 8 5.94 8 9 8 C9 9.98 9 11.96 9 14 C6.03 14 3.06 14 0 14 C0.33 19.94 0.66 25.88 1 32 C3.64 32.33 6.28 32.66 9 33 C9.33 34.98 9.66 36.96 10 39 C6.0696314 40.9651843 1.2852815 40.46909886 -3 40 C-6.16620095 37.81381363 -6.7896387 36.63108389 -8 33 C-8.0806622 31.51876453 -8.10761193 30.03417796 -8.09765625 28.55078125 C-8.09443359 27.70322266 -8.09121094 26.85566406 -8.08789062 25.98242188 C-8.07951172 25.10134766 -8.07113281 24.22027344 -8.0625 23.3125 C-8.05798828 22.41982422 -8.05347656 21.52714844 -8.04882812 20.60742188 C-8.03704983 18.40488013 -8.02060164 16.20247401 -8 14 C-9.65 14 -11.3 14 -13 14 C-13 12.02 -13 10.04 -13 8 C-11.35 8 -9.7 8 -8 8 C-8 5.69 -8 3.38 -8 1 C-5.23735711 0.40267181 -2.83967231 0 0 0 Z " fill="#FCFDFC" transform="translate(803,706)"/>
<path d="M0 0 C2.64 0 5.28 0 8 0 C8.33 12.87 8.66 25.74 9 39 C10.32 39 11.64 39 13 39 C13 40.98 13 42.96 13 45 C11.56344146 45.08131463 10.1255517 45.13933559 8.6875 45.1875 C7.48673828 45.23970703 7.48673828 45.23970703 6.26171875 45.29296875 C4 45 4 45 2.26953125 43.67578125 C-0.78276664 39.64674803 -0.12722279 34.97395452 -0.09765625 30.17578125 C-0.09553383 28.88367989 -0.09553383 28.88367989 -0.09336853 27.56547546 C-0.0877714 24.81444831 -0.07521946 22.06350256 -0.0625 19.3125 C-0.05748463 17.4472668 -0.05292179 15.58203233 -0.04882812 13.71679688 C-0.03780292 9.14449989 -0.02054027 4.57226375 0 0 Z " fill="#F8FBF8" transform="translate(382,701)"/>
<path d="M0 0 C2.64 0 5.28 0 8 0 C8.33 12.54 8.66 25.08 9 38 C9.99 38.33 10.98 38.66 12 39 C12.33 40.98 12.66 42.96 13 45 C11.58506449 45.10884119 10.16767057 45.18597617 8.75 45.25 C7.96109375 45.29640625 7.1721875 45.3428125 6.359375 45.390625 C2.95286514 44.8266333 2.04419326 43.78869653 0 41 C-0.55849178 37.87735863 -0.46516124 34.80394323 -0.390625 31.640625 C-0.38496521 30.73624695 -0.37930542 29.8318689 -0.37347412 28.90008545 C-0.35111248 26.01618147 -0.30091686 23.13352739 -0.25 20.25 C-0.22993471 18.29298671 -0.21168399 16.33595392 -0.1953125 14.37890625 C-0.15124839 9.58545711 -0.08222252 4.79294035 0 0 Z " fill="#F9FBF9" transform="translate(364,701)"/>
<path d="M0 0 C2.69105198 2.17574416 4.45532928 3.91065856 6 7 C6.40251462 12.23269006 5.80083881 15.53940485 3 20 C-0.67294875 22.4486325 -3.73268965 22.83183438 -8 22 C-11.21954645 19.46546343 -12.70432435 17.88702695 -14 14 C-14.53756448 8.30181648 -13.60129241 5.44865533 -10 1 C-6.78305636 -0.60847182 -3.47862778 -0.61309149 0 0 Z " fill="#086908" transform="translate(545,519)"/>
<path d="M0 0 C3.0216321 0.73251687 4.80104733 2.27158096 6.93359375 4.46875 C8.78222063 8.16600375 8.40946469 12.43336442 7.93359375 16.46875 C6.13712521 19.40298195 4.98948665 20.94080355 1.93359375 22.46875 C-5.0535954 23.27055859 -5.0535954 23.27055859 -9.06640625 20.09375 C-11.53689163 16.54767915 -11.78636061 13.12295484 -11.54296875 8.8828125 C-10.28920657 2.5317877 -6.45529487 -0.48811303 0 0 Z " fill="#046604" transform="translate(409.06640625,518.53125)"/>
<path d="M0 0 C1 1 1 1 1.125 4 C1 7 1 7 0 8 C-1.11375 8.103125 -2.2275 8.20625 -3.375 8.3125 C-6.96992489 8.634376 -6.96992489 8.634376 -8.69458008 10.74511719 C-10.16881305 13.29159478 -10.41806675 14.84368253 -10.51171875 17.765625 C-10.54716797 18.65507813 -10.58261719 19.54453125 -10.61914062 20.4609375 C-10.65297852 21.84152344 -10.65297852 21.84152344 -10.6875 23.25 C-10.72166016 24.18585937 -10.75582031 25.12171875 -10.79101562 26.0859375 C-10.87332162 28.39050533 -10.9425263 30.69470119 -11 33 C-13.64 33 -16.28 33 -19 33 C-19 22.44 -19 11.88 -19 1 C-16.36 1 -13.72 1 -11 1 C-10.67 1.99 -10.34 2.98 -10 4 C-9.278125 3.34 -8.55625 2.68 -7.8125 2 C-4.7845747 -0.15319133 -3.60748837 -0.50104005 0 0 Z " fill="#F7FAF7" transform="translate(627,713)"/>
<path d="M0 0 C2.84930765 0.60977401 4.50880904 2.08843083 6.15625 4.453125 C7.86807432 8.42644199 7.83673119 12.23073874 7.0078125 16.4296875 C5.69804717 19.46978502 4.74210086 20.26504255 2.0078125 22.4296875 C-0.84781187 23.21843859 -3.1358214 23.21446687 -5.9921875 22.4296875 C-9.21173395 19.89515093 -10.69651185 18.31671445 -11.9921875 14.4296875 C-12.36285523 9.42567315 -12.09100585 6.44667426 -8.9921875 2.4296875 C-5.8138683 0.31080803 -3.79989009 -0.12619561 0 0 Z " fill="#076807" transform="translate(840.9921875,518.5703125)"/>
<path d="M0 0 C12.05357143 -0.66964286 12.05357143 -0.66964286 15.75 2 C18.26295386 5.35060515 18.78117726 6.98493241 18.46484375 11.06640625 C17.72975281 14.12413748 16.25613821 15.87278397 14 18 C9.36297289 19.5456757 4.87528349 19.05735628 0 19 C0 12.73 0 6.46 0 0 Z " fill="#076807" transform="translate(351,501)"/>
<path d="M0 0 C2.97 0 5.94 0 9 0 C9 10.89 9 21.78 9 33 C6.03 33 3.06 33 0 33 C0 22.11 0 11.22 0 0 Z " fill="#E1EDE1" transform="translate(776,713)"/>
<path d="M0 0 C2.97 0 5.94 0 9 0 C9 10.89 9 21.78 9 33 C6.03 33 3.06 33 0 33 C0 22.11 0 11.22 0 0 Z " fill="#E1EDE1" transform="translate(346,713)"/>
<path d="M0 0 C2.64 0 5.28 0 8 0 C8 10.56 8 21.12 8 32 C5.36 32 2.72 32 0 32 C0 21.44 0 10.88 0 0 Z " fill="#FFFFFF" transform="translate(819,714)"/>
<path d="M0 0 C3.5 0.5625 3.5 0.5625 5.9375 1.875 C8.48426115 6.25542917 8.32930461 10.63759458 7.5 15.5625 C5.4375 18.8125 5.4375 18.8125 2.5 20.5625 C-1.125 20.75 -1.125 20.75 -4.5 19.5625 C-7.91584655 15.04476747 -8.10407314 10.9991583 -7.5 5.5625 C-5.42750961 1.58331846 -4.45868531 0.71657442 0 0 Z " fill="#0A6A0A" transform="translate(646.5,719.4375)"/>
<path d="M0 0 C2.875 2 2.875 2 5 5 C5.68886431 10.42480643 5.40779001 14.49292289 2 19 C-1.375 20.1875 -1.375 20.1875 -5 20 C-7.9375 18.25 -7.9375 18.25 -10 15 C-10.83295633 10.05340847 -11.01130225 5.67253834 -8.375 1.3125 C-5.22091596 -0.43054644 -3.55483933 -0.65292967 0 0 Z " fill="#096909" transform="translate(853,720)"/>
<path d="M0 0 C4.25969681 0.86932588 5.61392684 2.02415712 8.0625 5.625 C9.10415732 10.74928197 8.85747079 14.39640877 6 18.8125 C3.0625 20.625 3.0625 20.625 -0.5625 20.8125 C-3.9375 19.625 -3.9375 19.625 -5.875 17.0625 C-7.20137012 12.77130256 -7.43593754 10.11093788 -6.9375 5.625 C-4.98833781 2.02654672 -4.0247282 0.85632515 0 0 Z " fill="#0C6B0C" transform="translate(684.9375,719.375)"/>
<path d="M0 0 C3.72729694 0.62121616 4.68607792 1.55857363 7 4.5 C7.53125 7.375 7.53125 7.375 7.5 10.5 C7.5103125 11.53125 7.520625 12.5625 7.53125 13.625 C6.87920378 17.15372071 5.81588242 18.33707582 3 20.5 C0 21 0 21 -3 20.5 C-5.81588242 18.33707582 -6.87920378 17.15372071 -7.53125 13.625 C-7.5209375 12.59375 -7.510625 11.5625 -7.5 10.5 C-7.5103125 9.46875 -7.520625 8.4375 -7.53125 7.375 C-6.68340237 2.78664815 -4.56626014 0.76104336 0 0 Z " fill="#066806" transform="translate(723,719.5)"/>
<path d="M0 0 C3 0.5 3 0.5 5.375 1.8125 C8.00684287 6.16516321 7.84750936 10.56106613 7 15.5 C4.69173227 18.86347584 3.41895526 20.18852202 -0.5625 21.0625 C-3.82179569 20.31035484 -4.91581878 19.09547724 -7 16.5 C-7.53125 13.625 -7.53125 13.625 -7.5 10.5 C-7.5103125 9.46875 -7.520625 8.4375 -7.53125 7.375 C-6.68340237 2.78664815 -4.56626014 0.76104336 0 0 Z " fill="#076807" transform="translate(531,719.5)"/>
<path d="M0 0 C2.86659337 2.7797269 5.48037831 5.58981049 8 8.6875 C12.07873912 13.42207163 16.92363713 16.99562976 21.9140625 20.703125 C24.65448687 22.74283327 27.3324059 24.86592472 30 27 C23.73 27 17.46 27 11 27 C0 3.46511628 0 3.46511628 0 0 Z " fill="#DE0A01" transform="translate(235,577)"/>
<path d="M0 0 C2.5 2.1875 2.5 2.1875 4 5 C4 8.5948199 3.39994536 10.41546447 1.375 13.375 C-1.9535616 15.65243688 -4.0508385 15.56416593 -8 15 C-10.4375 13.5 -10.4375 13.5 -12 11 C-12.61014545 8.1910285 -12.65360928 5.80363979 -12 3 C-8.39055206 -1.48446562 -5.36203018 -1.65735478 0 0 Z " fill="#F5F9F5" transform="translate(509,489)"/>
<path d="M0 0 C2.27024968 -0.08097324 4.54132075 -0.13917704 6.8125 -0.1875 C8.07707031 -0.22230469 9.34164063 -0.25710938 10.64453125 -0.29296875 C14 0 14 0 15.9609375 1.2890625 C17.74547425 4.22751023 16.75645943 6.79959474 16 10 C14 12 14 12 10.7421875 12.1953125 C9.46601563 12.17210937 8.18984375 12.14890625 6.875 12.125 C4.95300781 12.09792969 4.95300781 12.09792969 2.9921875 12.0703125 C1.51105469 12.03550781 1.51105469 12.03550781 0 12 C0 8.04 0 4.08 0 0 Z " fill="#056705" transform="translate(314,727)"/>
<path d="M0 0 C10.47610182 -0.36974477 10.47610182 -0.36974477 12.83203125 1.29296875 C14.78547961 4.14800867 14.35745403 6.66376235 14 10 C12.83203125 11.70703125 12.83203125 11.70703125 11 13 C7.29631297 13.40199208 3.73655831 13.13187853 0 13 C0 8.71 0 4.42 0 0 Z " fill="#076807" transform="translate(579,710)"/>
<path d="M0 0 C3.68352745 0.39790102 6.91560065 1.65362264 10.33203125 3.0390625 C11.36593994 3.45140137 12.39984863 3.86374023 13.46508789 4.28857422 C14.56973389 4.72959473 15.67437988 5.17061523 16.8125 5.625 C34.78635926 12.66433098 53.15515736 17.87769067 72 22 C72 22.33 72 22.66 72 23 C63.75679306 22.56101804 56.1359059 21.33117804 48.1875 19.125 C47.09671143 18.82762939 46.00592285 18.53025879 44.88208008 18.22387695 C29.01199284 13.75947438 13.27770068 8.1958677 -2 2 C-1.34 1.34 -0.68 0.68 0 0 Z " fill="#D19E9D" transform="translate(439,659)"/>
<path d="M0 0 C1.95803507 -0.05389087 3.91648909 -0.09274217 5.875 -0.125 C7.51082031 -0.15980469 7.51082031 -0.15980469 9.1796875 -0.1953125 C12 0 12 0 14 2 C13.42307692 8.57692308 13.42307692 8.57692308 12 10 C9.98035801 10.07244053 7.95832876 10.08377188 5.9375 10.0625 C4.83277344 10.05347656 3.72804688 10.04445313 2.58984375 10.03515625 C1.30787109 10.01775391 1.30787109 10.01775391 0 10 C0 6.7 0 3.4 0 0 Z " fill="#036603" transform="translate(314,710)"/>
<path d="M0 0 C5.21285915 0.35488451 9.86358185 2.3246169 14.6875 4.1875 C29.2114963 9.6601667 43.96006966 14.17819408 59 18 C59 18.33 59 18.66 59 19 C50.92571566 18.56203783 43.54873907 16.71476004 35.8125 14.4375 C34.60174805 14.086875 33.39099609 13.73625 32.14355469 13.375 C20.62045072 9.9870929 9.28296758 6.1113098 -2 2 C-1.34 1.34 -0.68 0.68 0 0 Z " fill="#4CBAD5" transform="translate(404,658)"/>
<path d="M0 0 C5.37154363 1.66703078 10.4771266 3.60525582 15.625 5.875 C31.20520305 12.65562116 47.60376246 16.70206567 64 21 C59.30443509 22.44967706 55.67492416 21.32028357 51 20.1875 C50.09443359 19.97029297 49.18886719 19.75308594 48.25585938 19.52929688 C31.0664568 15.18294894 14.507251 8.39604944 -2 2 C-1.34 1.34 -0.68 0.68 0 0 Z " fill="#C7DCC7" transform="translate(471,660)"/>
<path d="M0 0 C1.625 1.3125 1.625 1.3125 2.625 6.3125 C-2.985 6.3125 -8.595 6.3125 -14.375 6.3125 C-13.375 2.3125 -13.375 2.3125 -11.75 0.5625 C-7.84638218 -1.49203569 -4.17207136 -1.20770487 0 0 Z " fill="#066806" transform="translate(674.375,518.6875)"/>
<path d="M0 0 C0.21691118 3.18136394 0.25066255 5.43969547 -1.0625 8.375 C-3.93947559 10.78794727 -6.37659799 10.2734643 -10 10 C-10.625 7.125 -10.625 7.125 -11 4 C-8.07317918 1.07317918 -4.14037627 0 0 0 Z " fill="#0C6B0C" transform="translate(462,730)"/>
<path d="M0 0 C2.4375 0.8125 2.4375 0.8125 4.4375 2.8125 C4.10778521 6.10964793 3.8148161 7.4351839 1.4375 9.8125 C-1.6875 9.4375 -1.6875 9.4375 -4.5625 8.8125 C-5.89091008 3.37809513 -5.89091008 3.37809513 -4.4375 0.875 C-2.5625 -0.1875 -2.5625 -0.1875 0 0 Z " fill="#EFF5EF" transform="translate(823.5625,700.1875)"/>
<path d="M0 0 C5.56818182 0.56818182 5.56818182 0.56818182 7 2 C7.1875 4.9375 7.1875 4.9375 7 8 C5 10 5 10 2.5 10.25 C0 10 0 10 -2 8 C-2.25 5 -2.25 5 -2 2 C-1.34 1.34 -0.68 0.68 0 0 Z " fill="#EDF4ED" transform="translate(778,700)"/>
<path d="M0 0 C5.56818182 0.56818182 5.56818182 0.56818182 7 2 C7.1875 4.9375 7.1875 4.9375 7 8 C5 10 5 10 2.5 10.25 C0 10 0 10 -2 8 C-2.25 5 -2.25 5 -2 2 C-1.34 1.34 -0.68 0.68 0 0 Z " fill="#EDF4ED" transform="translate(348,700)"/>
<path d="M0 0 C0.64170639 0.17423996 1.28341278 0.34847992 1.94456482 0.52799988 C4.00531154 1.08877861 6.06323929 1.6591766 8.12109375 2.23046875 C20.27646477 5.57870144 20.27646477 5.57870144 32.55859375 8.41796875 C32.55859375 8.74796875 32.55859375 9.07796875 32.55859375 9.41796875 C23.66952396 9.01286397 15.54777998 7.38394782 6.99609375 4.98046875 C5.83529297 4.66787109 4.67449219 4.35527344 3.47851562 4.03320312 C-5.02366728 1.6964614 -5.02366728 1.6964614 -8.44140625 -0.58203125 C-5.36780147 -2.11883364 -3.26589589 -0.89995248 0 0 Z " fill="#B39687" transform="translate(478.44140625,672.58203125)"/>
<path d="M0 0 C2.27279098 0.61848737 4.54304863 1.24447262 6.8125 1.875 C8.07707031 2.22304688 9.34164063 2.57109375 10.64453125 2.9296875 C14 4 14 4 17 6 C10.31006781 5.46048934 4.36539272 4.11293829 -2 2 C-1.34 1.34 -0.68 0.68 0 0 Z " fill="#C29A91" transform="translate(472,671)"/>
<path d="M0 0 C4.34072171 0.37206186 8.07415115 2.22951915 12 4 C12 4.66 12 5.32 12 6 C7.16371695 5.00956295 2.52381127 4.04301154 -2 2 C-1.34 1.34 -0.68 0.68 0 0 Z " fill="#D9A1A3" transform="translate(439,659)"/>
<path d="M0 0 C5.94 0.33 11.88 0.66 18 1 C18 1.33 18 1.66 18 2 C13.05 2.33 8.1 2.66 3 3 C3 2.34 3 1.68 3 1 C2.01 0.67 1.02 0.34 0 0 Z " fill="#4BBBCE" transform="translate(298,545)"/>
<path d="M0 0 C2.97 0.33 5.94 0.66 9 1 C8.01 1.495 8.01 1.495 7 2 C6.67 2.66 6.34 3.32 6 4 C3.69 3.67 1.38 3.34 -1 3 C-0.67 2.01 -0.34 1.02 0 0 Z " fill="#026119" transform="translate(471,680)"/>
</svg>
